<svg width="24" height="24" viewBox="0 0 24 24" fill="none" xmlns="http://www.w3.org/2000/svg">
<path d="M4 4L20 20" stroke="white" stroke-width="2" stroke-linecap="round"/>
<path fill-rule="evenodd" clip-rule="evenodd" d="M6.22311 5.63732C4.19215 6.89322 2.60072 8.79137 1.73178 11.0474C1.4957 11.6604 1.4957 12.3396 1.73178 12.9526C3.31892 17.0733 7.31644 20 12 20C14.4221 20 16.6607 19.2173 18.4773 17.8915L17.042 16.4562C15.6033 17.4309 13.8678 18 12 18C8.17087 18 4.89787 15.6083 3.59813 12.2337C3.54025 12.0835 3.54025 11.9165 3.59813 11.7663C4.36734 9.76914 5.82769 8.11625 7.68543 7.09964L6.22311 5.63732ZM9.47958 8.89379C8.57683 9.6272 8 10.7462 8 12C8 14.2091 9.79086 16 12 16C13.2538 16 14.3728 15.4232 15.1062 14.5204L13.6766 13.0908C13.3198 13.6382 12.7021 14 12 14C10.8954 14 10 13.1046 10 12C10 11.2979 10.3618 10.6802 10.9092 10.3234L9.47958 8.89379ZM15.9627 12.5485L11.4515 8.03729C11.6308 8.0127 11.8139 8 12 8C14.2091 8 16 9.79086 16 12C16 12.1861 15.9873 12.3692 15.9627 12.5485ZM18.5678 15.1536C19.3539 14.3151 19.9812 13.3259 20.4019 12.2337C20.4598 12.0835 20.4598 11.9165 20.4019 11.7663C19.1021 8.39172 15.8291 6 12 6C11.2082 6 10.4402 6.10226 9.70854 6.29433L8.11858 4.70437C9.32544 4.24913 10.6335 4 12 4C16.6836 4 20.6811 6.92668 22.2682 11.0474C22.5043 11.6604 22.5043 12.3396 22.2682 12.9526C21.7464 14.3074 20.964 15.5331 19.9824 16.5682L18.5678 15.1536Z" fill="white"/>
</svg>
