<svg width="22" height="22" viewBox="0 0 22 22" fill="white" xmlns="http://www.w3.org/2000/svg">
<path d="M6.33093 11.3667C5.90666 11.7202 5.84933 12.3508 6.2029 12.7751C6.55646 13.1993 7.18703 13.2567 7.6113 12.9031L6.33093 11.3667ZM11.2138 8.59932L11.854 7.83109C11.4831 7.52206 10.9444 7.52206 10.5736 7.83109L11.2138 8.59932ZM14.8163 12.9031C15.2406 13.2567 15.8711 13.1993 16.2247 12.7751C16.5782 12.3508 16.5209 11.7202 16.0966 11.3667L14.8163 12.9031ZM7.6113 12.9031L11.854 9.36754L10.5736 7.83109L6.33093 11.3667L7.6113 12.9031ZM10.5736 9.36754L14.8163 12.9031L16.0966 11.3667L11.854 7.83109L10.5736 9.36754ZM19.6 10.9999C19.6 15.7496 15.7497 19.5999 11 19.5999V21.5999C16.8542 21.5999 21.6 16.8541 21.6 10.9999H19.6ZM11 19.5999C6.25038 19.5999 2.40002 15.7496 2.40002 10.9999H0.400024C0.400024 16.8541 5.14581 21.5999 11 21.5999V19.5999ZM2.40002 10.9999C2.40002 6.25025 6.25038 2.3999 11 2.3999V0.399902C5.14581 0.399902 0.400024 5.14568 0.400024 10.9999H2.40002ZM11 2.3999C15.7497 2.3999 19.6 6.25025 19.6 10.9999H21.6C21.6 5.14568 16.8542 0.399902 11 0.399902V2.3999Z"/>
</svg>
