<svg width="22" height="22" viewBox="0 0 22 22" fill="white" xmlns="http://www.w3.org/2000/svg">
<path d="M16.0957 10.5675C16.52 10.214 16.5773 9.5834 16.2237 9.15912C15.8701 8.73484 15.2396 8.67752 14.8153 9.03108L16.0957 10.5675ZM11.2128 13.3349L10.5726 14.1031C10.9435 14.4121 11.4822 14.4121 11.853 14.1031L11.2128 13.3349ZM7.61034 9.03108C7.18606 8.67752 6.55549 8.73484 6.20193 9.15912C5.84837 9.5834 5.90569 10.214 6.32997 10.5675L7.61034 9.03108ZM14.8153 9.03108L10.5726 12.5666L11.853 14.1031L16.0957 10.5675L14.8153 9.03108ZM11.853 12.5666L7.61034 9.03108L6.32997 10.5675L10.5726 14.1031L11.853 12.5666ZM19.6 10.9999C19.6 15.7496 15.7497 19.5999 11 19.5999V21.5999C16.8542 21.5999 21.6 16.8541 21.6 10.9999H19.6ZM11 19.5999C6.25038 19.5999 2.40002 15.7496 2.40002 10.9999H0.400024C0.400024 16.8541 5.14581 21.5999 11 21.5999V19.5999ZM2.40002 10.9999C2.40002 6.25025 6.25038 2.3999 11 2.3999V0.399902C5.14581 0.399902 0.400024 5.14568 0.400024 10.9999H2.40002ZM11 2.3999C15.7497 2.3999 19.6 6.25025 19.6 10.9999H21.6C21.6 5.14568 16.8542 0.399902 11 0.399902V2.3999Z"/>
</svg>
